<svg width="125" height="30" viewBox="0 0 125 30" fill="none" xmlns="http://www.w3.org/2000/svg">
<path fill-rule="evenodd" clip-rule="evenodd" d="M1.69101 5.62506H4.9882V10.5728H6.94444V13.4716H4.9882V23.9961H1.69101V13.4716H0V10.5728H1.69101V5.62506Z" fill="#161624"/>
<path fill-rule="evenodd" clip-rule="evenodd" d="M15.7718 16.3654C15.722 15.127 14.9308 13.9144 13.0513 13.9144C11.3437 13.9144 10.4044 15.2284 10.3303 16.3654H15.7718ZM18.839 20.4336C18.2211 22.5815 16.2918 24.375 13.2984 24.375C9.95991 24.375 7.01636 21.924 7.01636 17.73C7.01636 13.763 9.88586 11.1855 13.0018 11.1855C16.7621 11.1855 19.0127 13.6364 19.0127 17.6283C19.0127 18.1087 18.9625 18.6139 18.9625 18.6644H10.2566C10.3311 20.307 11.6913 21.4945 13.3235 21.4945C14.857 21.4945 15.6985 20.711 16.0934 19.5996L18.839 20.4336Z" fill="#161624"/>
<path fill-rule="evenodd" clip-rule="evenodd" d="M22.5245 19.9026C22.599 20.8883 23.3166 21.7979 24.7509 21.7979C25.8387 21.7979 26.358 21.2166 26.358 20.5596C26.358 20.0039 25.9873 19.5491 25.048 19.347L23.44 18.9678C21.0897 18.4369 20.0261 16.9969 20.0261 15.2534C20.0261 13.0298 21.9559 11.1854 24.5777 11.1854C28.0405 11.1854 29.2023 13.4342 29.3513 14.7733L26.6057 15.4051C26.5065 14.672 25.9873 13.7372 24.6028 13.7372C23.7366 13.7372 23.0437 14.2681 23.0437 14.9755C23.0437 15.5821 23.4889 15.9612 24.1567 16.0873L25.8881 16.4664C28.2877 16.9712 29.4999 18.4626 29.4999 20.2818C29.4999 22.3031 27.966 24.3749 24.7751 24.3749C21.1149 24.3749 19.8538 21.9492 19.7043 20.5344L22.5245 19.9026Z" fill="#161624"/>
<path fill-rule="evenodd" clip-rule="evenodd" d="M31.5899 5.625H34.8871V10.5727H36.8438V13.4716H34.8871V23.996H31.5899V13.4716H29.8989V10.5727H31.5899V5.625Z" fill="#161624"/>
<path fill-rule="evenodd" clip-rule="evenodd" d="M44.0635 14.2426C42.4066 14.2426 41.0208 15.4809 41.0208 17.7549C41.0208 20.0041 42.4066 21.2924 44.0635 21.2924C45.7456 21.2924 47.0812 20.0293 47.0812 17.7549C47.0812 15.4809 45.7456 14.2426 44.0635 14.2426ZM37.8301 23.996V5.70245H41.0707V12.9287C41.6142 12.0444 42.9507 11.2356 44.7557 11.2356C48.3176 11.2356 50.3704 14.041 50.3704 17.7297C50.3704 21.4946 48.095 24.2995 44.6318 24.2995C42.9507 24.2995 41.664 23.5417 41.0205 22.4799V23.996H37.8301Z" fill="#161624"/>
<path fill-rule="evenodd" clip-rule="evenodd" d="M60.6602 17.7799C60.6602 15.4303 59.1765 14.2424 57.5685 14.2424C55.9615 14.2424 54.4769 15.4303 54.4769 17.7799C54.4769 20.1048 55.9615 21.3179 57.5685 21.3179C59.1765 21.3179 60.6602 20.13 60.6602 17.7799ZM63.9506 17.7799C63.9506 21.5953 61.2045 24.3749 57.5685 24.3749C53.9325 24.3749 51.1877 21.5953 51.1877 17.7799C51.1877 13.9394 53.9325 11.1854 57.5685 11.1854C61.2045 11.1854 63.9506 13.9394 63.9506 17.7799Z" fill="#161624"/>
<path fill-rule="evenodd" clip-rule="evenodd" d="M74.2394 17.7799C74.2394 15.4303 72.7553 14.2424 71.1473 14.2424C69.5402 14.2424 68.0556 15.4303 68.0556 17.7799C68.0556 20.1048 69.5402 21.3179 71.1473 21.3179C72.7553 21.3179 74.2394 20.13 74.2394 17.7799ZM77.5295 17.7799C77.5295 21.5953 74.7838 24.3749 71.1474 24.3749C67.5113 24.3749 64.7666 21.5953 64.7666 17.7799C64.7666 13.9394 67.5113 11.1854 71.1474 11.1854C74.7838 11.1854 77.5295 13.9394 77.5295 17.7799Z" fill="#161624"/>
<path fill-rule="evenodd" clip-rule="evenodd" d="M86.1868 16.7948L91.158 23.9963H87.1261L83.9111 19.2458L82.5503 20.711V23.9963H79.2612V5.70233H82.5503V16.1883L86.7554 11.5642H91.0588L86.1868 16.7948Z" fill="#161624"/>
<g clip-path="url(#clip0)">
<path fill-rule="evenodd" clip-rule="evenodd" d="M102.565 0L104.349 0.517647C103.928 1.77529 104.681 3.11294 106.03 3.50471C107.379 3.89647 108.813 3.19471 109.233 1.93706L111.184 2.50353C110.764 3.76118 111.517 5.09882 112.866 5.49C114.215 5.88235 115.648 5.18 116.069 3.92294L118.013 4.48765C117.593 5.74471 118.346 7.08177 119.695 7.47412C121.043 7.86588 122.477 7.16412 122.898 5.90647L124.688 6.42647L116.81 30L115.02 29.48C115.44 28.2224 114.687 26.8859 113.338 26.4935C111.989 26.1018 110.556 26.8035 110.135 28.0612L108.191 27.4965C108.611 26.2388 107.858 24.9012 106.509 24.51C105.16 24.1176 103.727 24.82 103.306 26.0771L101.356 25.5106C101.776 24.2529 101.023 22.9159 99.674 22.5241C98.3251 22.1318 96.8916 22.8341 96.471 24.0918L94.6875 23.5735L102.565 0ZM103.084 11.3124C104.253 11.3124 104.826 11.9606 104.826 13.1506V14.1176C104.826 15.3076 104.253 15.9559 103.084 15.9559H102.531V18.75H101.362V11.3124H103.084ZM103.084 12.3747H102.531V14.8929H103.084C103.456 14.8929 103.658 14.7229 103.658 14.1918V13.0765C103.658 12.5447 103.456 12.3753 103.084 12.3753V12.3747ZM108.213 11.3124L109.403 18.75H108.224L108.022 17.4006H106.588L106.386 18.75H105.312L106.502 11.3124H108.213ZM107.212 12.63L106.649 16.3912H107.775L107.212 12.63ZM110.345 13.0976C110.345 11.9076 110.929 11.2271 112.066 11.2271C113.203 11.2271 113.787 11.9076 113.787 13.0976V13.3312H112.682V13.0229C112.682 12.4918 112.47 12.29 112.097 12.29C111.726 12.29 111.513 12.4918 111.513 13.0229C111.513 14.5529 113.798 14.84 113.798 16.9647C113.798 18.1547 113.203 18.8353 112.055 18.8353C110.908 18.8353 110.313 18.1547 110.313 16.9647V16.5082H111.418V17.0394C111.418 17.5706 111.651 17.7618 112.023 17.7618C112.395 17.7618 112.629 17.5706 112.629 17.0394C112.629 15.5094 110.345 15.2224 110.345 13.0976ZM114.719 13.0976C114.719 11.9076 115.304 11.2271 116.44 11.2271C117.578 11.2271 118.162 11.9076 118.162 13.0976V13.3312H117.057V13.0229C117.057 12.4918 116.845 12.29 116.473 12.29C116.1 12.29 115.888 12.4918 115.888 13.0229C115.888 14.5529 118.172 14.84 118.172 16.9647C118.172 18.1547 117.578 18.8353 116.43 18.8353C115.283 18.8353 114.688 18.1547 114.688 16.9647V16.5082H115.793V17.0394C115.793 17.5706 116.026 17.7618 116.399 17.7618C116.77 17.7618 117.004 17.5706 117.004 17.0394C117.004 15.5094 114.719 15.2224 114.719 13.0976Z" fill="#4788F4"/>
</g>
<defs>
<clipPath id="clip0">
<rect width="30" height="30" fill="white" transform="translate(94.6875)"/>
</clipPath>
</defs>
</svg>
